<svg width="101" height="19" fill="none" xmlns="http://www.w3.org/2000/svg"><g clip-path="url(#clip0_15082_523)" fill="#111"><path d="M1.264 17.346A6.855 6.855 0 010 13.042v-6.38a6.94 6.94 0 011.185-4.38c.87-1 2.213-1.461 4.189-1.461s3.24.461 4.03 1.306a5.415 5.415 0 011.186 3.767V7.43H6.718V5.663a3.687 3.687 0 00-.238-1.537 1.12 1.12 0 00-.456-.472 1.164 1.164 0 00-.65-.143c-.553 0-.948.154-1.106.538A4.838 4.838 0 004.03 5.74v8.224a3.107 3.107 0 00.316 1.614c.158.385.553.538 1.106.538s.87-.153 1.027-.538c.18-.52.26-1.066.238-1.614V12.12h3.872v1.538A5.767 5.767 0 019.405 17.5c-.79.922-2.134 1.383-4.031 1.383-1.897-.077-3.32-.538-4.11-1.537zM15.253 1.053h4.504l3.32 17.524H19.44l-.632-3.69H16.2l-.632 3.69h-3.715l3.399-17.524zm3.24 11.529l-.948-6.84-.949 6.84h1.897zm7.35-8.609h-2.687v-2.92h9.404v2.844h-2.687v14.68h-4.03V3.973zm13.909-2.92h6.955v1.844h-4.505v5.765h3.635v1.768h-3.635v6.456h4.505v1.768h-7.034V1.053h.079zm9.009 0H50.5l5.137 11.606V1.053h2.055v17.524h-1.58l-5.217-11.99v11.99h-2.134V1.053zm11.302 0h6.954v1.844h-4.504v5.765h3.635v1.768h-3.635v6.456h4.504v1.768h-6.954V1.053zm9.009 0h3.635a6.455 6.455 0 014.03 1.076c.87.692 1.265 1.921 1.265 3.536 0 2.228-.71 3.612-2.212 4.073l2.528 8.762h-2.45l-2.37-8.224h-1.976V18.5h-2.529V1.053h.079zm3.477 7.532a3.526 3.526 0 002.292-.615c.474-.384.711-1.153.711-2.305a4.838 4.838 0 00-.237-1.691 1.973 1.973 0 00-.869-.923 3.693 3.693 0 00-1.739-.307h-1.106v5.764h.948v.077zm8.614 8.685a7.602 7.602 0 01-1.106-4.458V6.971c-.02-1.114.114-2.225.395-3.305a3.913 3.913 0 011.502-1.999 5.277 5.277 0 012.924-.691c1.66 0 2.845.384 3.556 1.23a5.763 5.763 0 011.107 3.843v.614H87.17v-.538a11.15 11.15 0 00-.158-1.921 1.532 1.532 0 00-.633-1 2.495 2.495 0 00-1.501-.384 2.418 2.418 0 00-1.58.462c-.187.152-.338.34-.447.551a1.7 1.7 0 00-.186.678 14.006 14.006 0 00-.158 2.076v6.533a6.808 6.808 0 00.474 2.92c.316.615.949.846 1.897.846a1.96 1.96 0 001.092-.182 1.89 1.89 0 00.805-.74 6.898 6.898 0 00.553-3.075v-1.23h-2.292V9.892h4.584v8.685h-1.58l-.238-1.999a3.141 3.141 0 01-1.226 1.657 3.291 3.291 0 01-2.014.573 4.049 4.049 0 01-1.899-.352 3.931 3.931 0 01-1.5-1.186zm13.515-4.84l-3.873-11.3h2.371l2.766 8.455 2.687-8.454H101l-3.873 11.298v6.15h-2.37v-6.15h-.08z"/></g><defs><clipPath id="clip0_15082_523"><path fill="#fff" transform="translate(0 .82)" d="M0 0h101v17.985H0z"/></clipPath></defs></svg>